<svg width="1171" height="453" xmlns="http://www.w3.org/2000/svg" xmlns:xlink="http://www.w3.org/1999/xlink" overflow="hidden"><defs><clipPath id="clip0"><rect x="28" y="146" width="1171" height="453"/></clipPath></defs><g clip-path="url(#clip0)" transform="translate(-28 -146)"><path d="M458 372C458 249.393 560.974 150 688 150 815.025 150 918 249.393 918 372 918 494.607 815.025 594 688 594 560.974 594 458 494.607 458 372Z" stroke="#4472C4" stroke-width="8" stroke-miterlimit="8" fill="#FFFFFF" fill-rule="evenodd"/><path d="M149.002 252.127 440.1 327.427 438.097 335.172 146.998 259.873ZM438.231 318.68 458.461 336.308 432.221 341.915Z" fill="#262626"/><path d="M1.17647-3.82308 292.523 85.8328 290.17 93.479-1.17647 3.82308ZM291.052 77.0102 310.461 95.5383 283.994 99.9486Z" fill="#262626" transform="matrix(1 0 0 -1 148 488.538)"/><path d="M918.028 361 1154.49 362.657 1154.43 370.656 917.972 369ZM1150.55 354.629 1174.46 366.797 1150.38 378.628Z" fill="#262626"/><rect x="29.5001" y="208.5" width="119" height="96" stroke="#000000" stroke-width="1.33333" stroke-miterlimit="8" fill="#FFFFFF"/><path d="M56.4923 234.636 69.1173 234.636 68.7735 236.167C67.8777 236.313 67.1642 236.621 66.6329 237.089 66.1017 237.558 65.836 238.24 65.836 239.136 65.836 240.469 66.1798 242.147 66.8673 244.167L69.461 251.73 75.2423 244.417C76.1381 243.292 76.836 242.371 77.336 241.652 77.836 240.933 78.1954 240.298 78.4142 239.746 78.6329 239.193 78.7423 238.709 78.7423 238.292 78.7423 237.73 78.5756 237.251 78.2423 236.855 77.9089 236.459 77.336 236.23 76.5235 236.167L76.8673 234.636 88.5235 234.636 88.1798 236.167C87.5548 236.355 86.9662 236.657 86.4142 237.074 85.8621 237.49 85.2058 238.115 84.4454 238.949 83.685 239.782 82.2735 241.428 80.211 243.886L70.8985 255.011 75.461 267.699C76.1485 269.615 76.711 271.079 77.1485 272.089 77.586 273.1 77.9714 273.844 78.3048 274.324 78.5756 274.678 78.8569 274.954 79.1485 275.152 79.4402 275.35 79.9298 275.553 80.6173 275.761L80.3048 277.292 67.6798 277.292 67.9923 275.761C68.9506 275.615 69.685 275.287 70.1954 274.777 70.7058 274.266 70.961 273.605 70.961 272.792 70.961 271.563 70.711 270.199 70.211 268.699L66.961 259.167 59.836 268.074C58.7735 269.407 58.0027 270.496 57.5235 271.339 57.0444 272.183 56.8048 272.907 56.8048 273.511 56.8048 274.324 56.9975 274.881 57.3829 275.183 57.7683 275.485 58.3152 275.678 59.0235 275.761L58.6798 277.292 47.0548 277.292 47.3673 275.761C48.0131 275.553 48.6017 275.251 49.1329 274.855 49.6642 274.459 50.3517 273.787 51.1954 272.839 52.0392 271.891 53.5131 270.167 55.6173 267.667L65.5235 255.886 60.8985 243.042C60.1277 240.897 59.5235 239.412 59.086 238.589 58.6485 237.766 58.2162 237.188 57.7892 236.855 57.3621 236.522 56.8152 236.292 56.1485 236.167Z" fill-rule="evenodd"/><text fill="#000000" fill-opacity="0" font-family="Arial,Arial_MSFontService,sans-serif" font-size="42.6562" x="47.0548" y="271.96">𝑋</text><path d="M100.242 260.794 101.642 260.794C101.611 261.635 101.588 262.389 101.573 263.054 101.557 263.72 101.546 264.366 101.538 264.993 101.531 265.621 101.527 266.24 101.527 266.852L101.527 284.294C101.527 284.768 101.542 285.177 101.573 285.522 101.603 285.866 101.653 286.156 101.722 286.394 101.791 286.631 101.883 286.833 101.997 287.002 102.112 287.17 102.246 287.315 102.399 287.438 102.583 287.621 102.827 287.763 103.133 287.862 103.439 287.962 103.829 288.046 104.304 288.115 104.778 288.184 105.348 288.237 106.013 288.275 106.679 288.314 107.478 288.341 108.412 288.356L108.412 290.352 90.2129 290.352 90.2129 288.356C91.1156 288.325 91.8806 288.291 92.5079 288.253 93.1351 288.214 93.6706 288.161 94.1143 288.092 94.558 288.023 94.9137 287.947 95.1814 287.862 95.4492 287.778 95.6825 287.675 95.8814 287.553 96.0956 287.415 96.2792 287.266 96.4322 287.105 96.5852 286.944 96.7076 286.742 96.7994 286.497 96.8912 286.252 96.9638 285.954 97.0174 285.602 97.0709 285.25 97.0977 284.814 97.0977 284.294L97.0977 267.839C97.0977 267.243 96.983 266.822 96.7535 266.577 96.524 266.332 96.195 266.21 95.7666 266.21 95.2924 266.21 94.5886 266.455 93.6553 266.944 92.7221 267.434 91.5134 268.16 90.0293 269.124 89.8305 268.772 89.6469 268.421 89.4786 268.069 89.3103 267.717 89.1343 267.357 88.9507 266.99 90.8479 265.95 92.7259 264.913 94.5848 263.88 96.4436 262.848 98.3293 261.819 100.242 260.794Z" fill-rule="evenodd"/><text fill="#000000" fill-opacity="0" font-family="Arial,Arial_MSFontService,sans-serif" font-size="29.5586" x="88.9507" y="286.658">1</text><rect x="29.5001" y="441.5" width="119" height="96" stroke="#000000" stroke-width="1.33333" stroke-miterlimit="8" fill="#FFFFFF"/><path d="M55.7523 467.713 68.3773 467.713 68.0335 469.244C67.1377 469.39 66.4241 469.697 65.8929 470.166 65.3616 470.635 65.096 471.317 65.096 472.213 65.096 473.546 65.4398 475.223 66.1273 477.244L68.721 484.807 74.5023 477.494C75.3981 476.369 76.096 475.447 76.596 474.729 77.096 474.01 77.4554 473.374 77.6741 472.822 77.8929 472.27 78.0023 471.786 78.0023 471.369 78.0023 470.807 77.8356 470.328 77.5023 469.932 77.1689 469.536 76.596 469.307 75.7835 469.244L76.1273 467.713 87.7835 467.713 87.4398 469.244C86.8148 469.432 86.2262 469.734 85.6741 470.15 85.1221 470.567 84.4658 471.192 83.7054 472.025 82.945 472.859 81.5335 474.505 79.471 476.963L70.1585 488.088 74.721 500.775C75.4085 502.692 75.971 504.156 76.4085 505.166 76.846 506.177 77.2314 506.921 77.5648 507.4 77.8356 507.755 78.1169 508.031 78.4085 508.229 78.7002 508.427 79.1898 508.63 79.8773 508.838L79.5648 510.369 66.9398 510.369 67.2523 508.838C68.2106 508.692 68.945 508.364 69.4554 507.854 69.9658 507.343 70.221 506.682 70.221 505.869 70.221 504.64 69.971 503.275 69.471 501.775L66.221 492.244 59.096 501.15C58.0335 502.484 57.2627 503.572 56.7835 504.416 56.3044 505.26 56.0648 505.984 56.0648 506.588 56.0648 507.4 56.2575 507.958 56.6429 508.26 57.0283 508.562 57.5752 508.755 58.2835 508.838L57.9398 510.369 46.3148 510.369 46.6273 508.838C47.2731 508.63 47.8616 508.328 48.3929 507.932 48.9241 507.536 49.6116 506.864 50.4554 505.916 51.2991 504.968 52.7731 503.244 54.8773 500.744L64.7835 488.963 60.1585 476.119C59.3877 473.973 58.7835 472.489 58.346 471.666 57.9085 470.843 57.4762 470.265 57.0491 469.932 56.6221 469.598 56.0752 469.369 55.4085 469.244Z" fill-rule="evenodd"/><text fill="#000000" fill-opacity="0" font-family="Arial,Arial_MSFontService,sans-serif" font-size="42.6562" x="46.3148" y="505.037">𝑋</text><path d="M99.1917 493.71C100.783 493.71 102.141 493.89 103.265 494.249 104.39 494.609 105.304 495.095 106.008 495.707 106.711 496.319 107.22 497.053 107.534 497.91 107.847 498.767 108.004 499.692 108.004 500.687 108.004 501.283 107.962 501.838 107.878 502.35 107.794 502.863 107.648 503.368 107.442 503.865 107.235 504.362 106.964 504.863 106.627 505.368 106.291 505.873 105.87 506.409 105.365 506.975 104.983 507.464 104.485 508.03 103.873 508.673 103.261 509.315 102.592 510.004 101.865 510.738 101.139 511.473 100.377 512.238 99.5818 513.033 98.7863 513.829 98.0136 514.617 97.264 515.397 96.5143 516.177 95.8258 516.935 95.1985 517.669 94.5713 518.403 94.0587 519.077 93.6609 519.689L102.152 519.689C102.871 519.689 103.445 519.662 103.873 519.608 104.302 519.555 104.657 519.436 104.94 519.253 105.224 519.069 105.464 518.79 105.663 518.415 105.862 518.04 106.092 517.524 106.352 516.866L108.486 516.866C108.41 517.952 108.337 519.046 108.268 520.148 108.199 521.249 108.127 522.343 108.05 523.429L88.6121 523.429 88.6121 522.236C88.9793 521.41 89.4077 520.595 89.8973 519.792 90.3869 518.989 90.9376 518.174 91.5496 517.348 92.1616 516.522 92.8577 515.669 93.638 514.789 94.4183 513.909 95.2827 512.995 96.2313 512.046 97.6694 510.608 98.8398 509.381 99.7425 508.363 100.645 507.346 101.357 506.439 101.877 505.644 102.397 504.848 102.753 504.114 102.944 503.44 103.135 502.767 103.231 502.048 103.231 501.283 103.231 500.503 103.12 499.784 102.898 499.126 102.676 498.468 102.359 497.91 101.946 497.451 101.533 496.992 101.009 496.632 100.374 496.372 99.7387 496.112 99.0081 495.982 98.1819 495.982 96.7591 495.982 95.5657 496.368 94.6019 497.141 93.638 497.914 92.8883 499.034 92.3528 500.503L89.3465 500.503 89.3465 496.028C91.3048 495.217 93.1063 494.628 94.751 494.261 96.3957 493.894 97.876 493.71 99.1917 493.71Z" fill-rule="evenodd"/><text fill="#000000" fill-opacity="0" font-family="Arial,Arial_MSFontService,sans-serif" font-size="29.7192" x="88.6121" y="519.714">2</text><rect x="244.5" y="150.5" width="118" height="96" stroke="#000000" stroke-width="1.33333" stroke-miterlimit="8" fill="#FFFFFF"/><path d="M259.045 177.405 272.076 177.405 271.732 178.937C270.795 178.999 270.06 179.275 269.529 179.765 268.998 180.254 268.628 180.921 268.42 181.765 268.211 182.608 268.107 183.801 268.107 185.343L268.107 186.405C268.107 186.78 268.118 187.166 268.138 187.562L268.42 199.78C268.441 200.676 268.451 202.895 268.451 206.437L268.42 212.968 268.732 212.968 286.013 177.405 290.732 177.405 290.732 198.249C290.732 201.687 290.638 206.593 290.451 212.968L290.763 212.968 303.42 188.499C303.899 187.582 304.404 186.504 304.935 185.265 305.467 184.025 305.732 182.957 305.732 182.062 305.732 180.312 304.691 179.27 302.607 178.937L302.951 177.405 315.732 177.405 315.388 178.937C314.43 179.062 313.513 179.588 312.638 180.515 311.763 181.442 310.597 183.249 309.138 185.937L290.357 220.468 285.545 220.468 285.545 197.593C285.545 193.884 285.638 190.02 285.826 185.999L285.513 185.999 268.795 220.468 263.888 220.468 262.42 185.718C262.336 183.989 262.154 182.666 261.873 181.749 261.592 180.832 261.211 180.166 260.732 179.749 260.253 179.332 259.576 179.062 258.701 178.937Z" fill="#C00000" fill-rule="evenodd"/><text fill="#000000" fill-opacity="0" font-family="Arial,Arial_MSFontService,sans-serif" font-size="43.0625" x="258.701" y="215.085">𝑊</text><path d="M321.764 203.563 323.164 203.563C323.133 204.404 323.11 205.158 323.095 205.823 323.079 206.489 323.068 207.135 323.06 207.763 323.053 208.39 323.049 209.01 323.049 209.622L323.049 227.063C323.049 227.537 323.064 227.946 323.095 228.291 323.125 228.635 323.175 228.926 323.244 229.163 323.313 229.4 323.405 229.603 323.519 229.771 323.634 229.939 323.768 230.085 323.921 230.207 324.105 230.391 324.349 230.532 324.655 230.632 324.961 230.731 325.351 230.815 325.826 230.884 326.3 230.953 326.87 231.006 327.535 231.045 328.201 231.083 329 231.11 329.934 231.125L329.934 233.122 311.735 233.122 311.735 231.125C312.638 231.094 313.403 231.06 314.03 231.022 314.657 230.983 315.193 230.93 315.636 230.861 316.08 230.792 316.436 230.716 316.703 230.632 316.971 230.547 317.204 230.444 317.403 230.322 317.618 230.184 317.801 230.035 317.954 229.874 318.107 229.714 318.23 229.511 318.321 229.266 318.413 229.021 318.486 228.723 318.539 228.371 318.593 228.019 318.62 227.583 318.62 227.063L318.62 210.608C318.62 210.012 318.505 209.591 318.275 209.346 318.046 209.101 317.717 208.979 317.289 208.979 316.814 208.979 316.111 209.224 315.177 209.713 314.244 210.203 313.035 210.93 311.551 211.893 311.352 211.542 311.169 211.19 311.001 210.838 310.832 210.486 310.656 210.126 310.473 209.759 312.37 208.719 314.248 207.682 316.107 206.65 317.966 205.617 319.851 204.588 321.764 203.563Z" fill="#C00000" fill-rule="evenodd"/><text fill="#000000" fill-opacity="0" font-family="Arial,Arial_MSFontService,sans-serif" font-size="29.5586" x="310.473" y="229.427">1</text><rect x="244.5" y="498.5" width="118" height="96" stroke="#000000" stroke-width="1.33333" stroke-miterlimit="8" fill="#FFFFFF"/><path d="M258.305 524.944 271.336 524.944 270.992 526.475C270.055 526.538 269.32 526.814 268.789 527.303 268.258 527.793 267.888 528.459 267.68 529.303 267.471 530.147 267.367 531.34 267.367 532.881L267.367 533.944C267.367 534.319 267.378 534.704 267.398 535.1L267.68 547.319C267.701 548.215 267.711 550.433 267.711 553.975L267.68 560.506 267.992 560.506 285.273 524.944 289.992 524.944 289.992 545.788C289.992 549.225 289.898 554.131 289.711 560.506L290.023 560.506 302.68 536.038C303.159 535.121 303.664 534.043 304.195 532.803 304.727 531.564 304.992 530.496 304.992 529.6 304.992 527.85 303.951 526.808 301.867 526.475L302.211 524.944 314.992 524.944 314.648 526.475C313.69 526.6 312.773 527.126 311.898 528.053 311.023 528.98 309.857 530.788 308.398 533.475L289.617 568.006 284.805 568.006 284.805 545.131C284.805 541.423 284.898 537.558 285.086 533.538L284.773 533.538 268.055 568.006 263.148 568.006 261.68 533.256C261.596 531.527 261.414 530.204 261.133 529.288 260.852 528.371 260.471 527.704 259.992 527.288 259.513 526.871 258.836 526.6 257.961 526.475Z" fill="#C00000" fill-rule="evenodd"/><text fill="#000000" fill-opacity="0" font-family="Arial,Arial_MSFontService,sans-serif" font-size="43.0625" x="257.961" y="562.624">𝑊</text><path d="M320.714 550.941C322.305 550.941 323.663 551.121 324.787 551.48 325.912 551.84 326.826 552.325 327.53 552.937 328.233 553.549 328.742 554.284 329.056 555.141 329.369 555.997 329.526 556.923 329.526 557.917 329.526 558.514 329.484 559.069 329.4 559.581 329.316 560.094 329.171 560.599 328.964 561.096 328.757 561.593 328.486 562.094 328.149 562.599 327.813 563.104 327.392 563.639 326.887 564.206 326.505 564.695 326.007 565.261 325.395 565.904 324.783 566.546 324.114 567.235 323.387 567.969 322.661 568.704 321.899 569.469 321.104 570.264 320.308 571.06 319.536 571.848 318.786 572.628 318.036 573.408 317.348 574.165 316.721 574.9 316.093 575.634 315.581 576.307 315.183 576.919L323.674 576.919C324.393 576.919 324.967 576.893 325.395 576.839 325.824 576.786 326.179 576.667 326.462 576.483 326.746 576.3 326.987 576.021 327.185 575.646 327.384 575.271 327.614 574.755 327.874 574.097L330.008 574.097C329.932 575.183 329.859 576.277 329.79 577.378 329.721 578.48 329.649 579.574 329.572 580.66L310.134 580.66 310.134 579.467C310.501 578.641 310.93 577.826 311.419 577.023 311.909 576.219 312.46 575.405 313.072 574.579 313.684 573.752 314.38 572.899 315.16 572.02 315.94 571.14 316.805 570.226 317.753 569.277 319.191 567.839 320.362 566.611 321.264 565.594 322.167 564.577 322.879 563.67 323.399 562.874 323.919 562.079 324.275 561.344 324.466 560.671 324.657 559.998 324.753 559.279 324.753 558.514 324.753 557.734 324.642 557.015 324.42 556.357 324.198 555.699 323.881 555.141 323.468 554.682 323.055 554.223 322.531 553.863 321.896 553.603 321.261 553.343 320.53 553.213 319.704 553.213 318.281 553.213 317.088 553.599 316.124 554.372 315.16 555.144 314.41 556.265 313.875 557.734L310.868 557.734 310.868 553.259C312.827 552.448 314.628 551.859 316.273 551.492 317.918 551.124 319.398 550.941 320.714 550.941Z" fill="#C00000" fill-rule="evenodd"/><text fill="#000000" fill-opacity="0" font-family="Arial,Arial_MSFontService,sans-serif" font-size="29.7192" x="310.134" y="576.945">2</text><rect x="987.5" y="260.5" width="118" height="96" stroke="#000000" stroke-width="1.33333" stroke-miterlimit="8" fill="#FFFFFF"/><text fill="#548235" font-family="Calibri,Calibri_MSFontService,sans-serif" font-weight="400" font-size="64" transform="translate(1030.34 330)">Y</text><path d="M478.808 314.315 535.41 314.315 535.41 328.19 532.316 328.19C531.957 324.862 531.23 322.229 530.136 320.292 529.043 318.354 527.386 317.385 525.168 317.385L488.183 317.385 516.144 355.354 516.144 358.19 485.957 399.159 526.621 399.159C528.418 399.159 529.793 398.526 530.746 397.26 531.699 395.995 532.519 393.167 533.207 388.776L536.675 388.776 535.48 405.956 477.847 405.956 477.847 403.635 510.683 359.127 478.808 316.542Z" fill-rule="evenodd"/><text fill="#000000" fill-opacity="0" font-family="Arial,Arial_MSFontService,sans-serif" font-size="91.6406" x="477.847" y="394.5">෍</text><path d="M551.59 341.854 561.363 341.854 561.106 343.002C560.403 343.049 559.852 343.256 559.453 343.624 559.055 343.991 558.778 344.491 558.621 345.124 558.465 345.756 558.387 346.651 558.387 347.807L558.387 348.604C558.387 348.885 558.395 349.174 558.41 349.471L558.621 358.635C558.637 359.307 558.645 360.971 558.645 363.627L558.621 368.526 558.856 368.526 571.817 341.854 575.356 341.854 575.356 357.487C575.356 360.065 575.285 363.745 575.145 368.526L575.379 368.526 584.871 350.174C585.231 349.487 585.61 348.678 586.008 347.749 586.406 346.819 586.606 346.018 586.606 345.346 586.606 344.034 585.824 343.252 584.262 343.002L584.52 341.854 594.106 341.854 593.848 343.002C593.129 343.096 592.442 343.491 591.785 344.186 591.129 344.881 590.254 346.237 589.16 348.252L575.074 374.151 571.465 374.151 571.465 356.995C571.465 354.213 571.535 351.315 571.676 348.299L571.442 348.299 558.903 374.151 555.223 374.151 554.121 348.088C554.059 346.792 553.922 345.799 553.711 345.112 553.5 344.424 553.215 343.924 552.856 343.612 552.496 343.299 551.988 343.096 551.332 343.002Z" fill-rule="evenodd"/><text fill="#000000" fill-opacity="0" font-family="Arial,Arial_MSFontService,sans-serif" font-size="32.2969" x="551.332" y="370.114">𝑊</text><path d="M596.368 366.368 597.205 366.368 594.676 377.75C594.516 378.422 594.405 378.958 594.343 379.357 594.28 379.755 594.249 380.114 594.249 380.433 594.249 380.866 594.337 381.18 594.513 381.373 594.69 381.567 594.955 381.664 595.308 381.664 595.513 381.664 595.718 381.624 595.923 381.544 596.128 381.464 596.348 381.339 596.581 381.168 596.815 380.997 597.071 380.778 597.35 380.51 597.63 380.242 597.94 379.921 598.282 379.545L599.444 380.673C598.851 381.276 598.313 381.786 597.829 382.202 597.345 382.618 596.886 382.957 596.453 383.219 596.02 383.481 595.596 383.669 595.18 383.783 594.764 383.897 594.323 383.954 593.856 383.954 593.423 383.954 593.032 383.874 592.685 383.715 592.337 383.555 592.038 383.336 591.788 383.057 591.537 382.777 591.343 382.444 591.207 382.057 591.07 381.669 591.002 381.242 591.002 380.775 591.002 380.399 591.047 379.932 591.138 379.374 591.229 378.815 591.346 378.209 591.489 377.554 591.631 376.899 591.788 376.212 591.959 375.494 592.129 374.777 592.297 374.065 592.463 373.358 592.628 372.652 592.776 371.971 592.907 371.316 593.038 370.661 593.132 370.065 593.189 369.53 593.212 369.439 593.223 369.351 593.223 369.265 593.223 369.18 593.223 369.103 593.223 369.034 593.2 368.59 593.044 368.265 592.753 368.06 592.463 367.855 591.947 367.741 591.207 367.718L591.412 366.556ZM595.377 359.481 598.794 359.481 597.957 363.155 594.573 363.155Z" fill-rule="evenodd"/><text fill="#000000" fill-opacity="0" font-family="Arial,Arial_MSFontService,sans-serif" font-size="24.4727" x="591.002" y="380.895">𝑖</text><path d="M610.271 341.854 619.739 341.854 619.482 343.002C618.81 343.112 618.274 343.342 617.876 343.694 617.478 344.045 617.278 344.557 617.278 345.229 617.278 346.229 617.536 347.487 618.052 349.002L619.997 354.674 624.333 349.19C625.005 348.346 625.528 347.655 625.903 347.116 626.278 346.577 626.548 346.1 626.712 345.686 626.876 345.272 626.958 344.909 626.958 344.596 626.958 344.174 626.833 343.815 626.583 343.518 626.333 343.221 625.903 343.049 625.294 343.002L625.552 341.854 634.294 341.854 634.036 343.002C633.567 343.143 633.126 343.37 632.712 343.682 632.298 343.995 631.806 344.463 631.235 345.088 630.665 345.713 629.607 346.948 628.06 348.792L621.075 357.135 624.497 366.651C625.013 368.088 625.435 369.186 625.763 369.944 626.091 370.702 626.38 371.26 626.63 371.62 626.833 371.885 627.044 372.092 627.263 372.241 627.482 372.389 627.849 372.542 628.364 372.698L628.13 373.846 618.661 373.846 618.896 372.698C619.614 372.588 620.165 372.342 620.548 371.959 620.931 371.577 621.122 371.081 621.122 370.471 621.122 369.549 620.935 368.526 620.56 367.401L618.122 360.252 612.778 366.932C611.982 367.932 611.403 368.749 611.044 369.381 610.685 370.014 610.505 370.557 610.505 371.01 610.505 371.62 610.649 372.038 610.939 372.264 611.228 372.491 611.638 372.635 612.169 372.698L611.911 373.846 603.192 373.846 603.427 372.698C603.911 372.542 604.353 372.315 604.751 372.018 605.149 371.721 605.665 371.217 606.298 370.506 606.931 369.795 608.036 368.502 609.614 366.627L617.044 357.792 613.575 348.159C612.997 346.549 612.544 345.436 612.216 344.819 611.888 344.202 611.564 343.768 611.243 343.518 610.923 343.268 610.513 343.096 610.013 343.002Z" fill-rule="evenodd"/><text fill="#000000" fill-opacity="0" font-family="Arial,Arial_MSFontService,sans-serif" font-size="31.9922" x="603.192" y="369.847">𝑋</text><path d="M640.781 366.368 641.618 366.368 639.089 377.75C638.93 378.422 638.819 378.958 638.756 379.357 638.693 379.755 638.662 380.114 638.662 380.433 638.662 380.866 638.75 381.18 638.927 381.373 639.103 381.567 639.368 381.664 639.721 381.664 639.927 381.664 640.132 381.624 640.337 381.544 640.542 381.464 640.761 381.339 640.995 381.168 641.228 380.997 641.485 380.778 641.764 380.51 642.043 380.242 642.353 379.921 642.695 379.545L643.857 380.673C643.265 381.276 642.726 381.786 642.242 382.202 641.758 382.618 641.299 382.957 640.867 383.219 640.434 383.481 640.009 383.669 639.593 383.783 639.177 383.897 638.736 383.954 638.269 383.954 637.836 383.954 637.446 383.874 637.098 383.715 636.751 383.555 636.452 383.336 636.201 383.057 635.95 382.777 635.757 382.444 635.62 382.057 635.483 381.669 635.415 381.242 635.415 380.775 635.415 380.399 635.46 379.932 635.552 379.374 635.643 378.815 635.76 378.209 635.902 377.554 636.044 376.899 636.201 376.212 636.372 375.494 636.543 374.777 636.711 374.065 636.876 373.358 637.041 372.652 637.189 371.971 637.32 371.316 637.451 370.661 637.545 370.065 637.602 369.53 637.625 369.439 637.637 369.351 637.637 369.265 637.637 369.18 637.637 369.103 637.637 369.034 637.614 368.59 637.457 368.265 637.167 368.06 636.876 367.855 636.36 367.741 635.62 367.718L635.825 366.556ZM639.79 359.481 643.208 359.481 642.37 363.155 638.987 363.155Z" fill-rule="evenodd"/><text fill="#000000" fill-opacity="0" font-family="Arial,Arial_MSFontService,sans-serif" font-size="24.4727" x="635.415" y="380.895">𝑖</text><path d="M675.03 345.065 678.358 345.065 678.358 358.565 691.132 358.565 691.132 361.682 678.358 361.682 678.358 375.182 675.03 375.182 675.03 361.682 662.257 361.682 662.257 358.565 675.03 358.565Z" fill-rule="evenodd"/><text fill="#000000" fill-opacity="0" font-family="Arial,Arial_MSFontService,sans-serif" font-size="30.1172" x="662.257" y="371.417">+</text><path d="M721.601 353.807C720.851 353.807 720.112 354.045 719.386 354.522 718.659 354.999 717.851 355.788 716.96 356.889 716.069 357.991 715.343 359.12 714.78 360.276 714.218 361.432 713.741 362.909 713.351 364.706L713.14 365.69C712.905 366.784 712.788 367.846 712.788 368.877 712.788 370.112 713.058 371.002 713.597 371.549 714.136 372.096 715.03 372.37 716.28 372.37 716.921 372.37 717.53 372.264 718.108 372.053 718.687 371.842 719.276 371.495 719.878 371.01 720.479 370.526 721.05 369.889 721.589 369.1 722.128 368.311 722.624 367.338 723.077 366.182 723.53 365.026 723.882 363.788 724.132 362.467 724.382 361.147 724.507 359.885 724.507 358.682 724.507 357.057 724.276 355.838 723.815 355.026 723.354 354.213 722.616 353.807 721.601 353.807ZM717.499 340.331 718.858 340.331 714.733 356.737 715.038 356.831C716.554 354.799 717.976 353.331 719.304 352.424 720.632 351.518 721.96 351.065 723.288 351.065 724.991 351.065 726.315 351.713 727.261 353.01 728.206 354.307 728.679 356.135 728.679 358.495 728.679 361.073 728.159 363.608 727.12 366.1 726.081 368.592 724.64 370.569 722.796 372.03 720.952 373.491 718.89 374.221 716.608 374.221 714.53 374.221 712.687 373.713 711.077 372.698L708.921 374.221 707.421 373.846 713.491 347.057C713.851 345.463 714.03 344.307 714.03 343.588 714.03 342.932 713.831 342.471 713.433 342.206 713.034 341.94 712.319 341.792 711.288 341.76L711.569 340.542Z" fill-rule="evenodd"/><text fill="#000000" fill-opacity="0" font-family="Arial,Arial_MSFontService,sans-serif" font-size="33.8906" x="707.421" y="369.985">𝑏</text><path d="M510.494 417.735 511.332 417.735 508.803 429.117C508.643 429.789 508.532 430.325 508.469 430.723 508.407 431.122 508.375 431.481 508.375 431.8 508.375 432.233 508.464 432.546 508.64 432.74 508.817 432.934 509.082 433.03 509.435 433.03 509.64 433.03 509.845 432.991 510.05 432.911 510.255 432.831 510.474 432.706 510.708 432.535 510.942 432.364 511.198 432.145 511.477 431.877 511.756 431.609 512.067 431.287 512.408 430.911L513.571 432.039C512.978 432.643 512.44 433.153 511.956 433.569 511.471 433.985 511.013 434.324 510.58 434.586 510.147 434.848 509.723 435.036 509.307 435.15 508.891 435.264 508.449 435.32 507.982 435.32 507.549 435.32 507.159 435.241 506.812 435.081 506.464 434.922 506.165 434.702 505.914 434.423 505.664 434.144 505.47 433.811 505.333 433.424 505.197 433.036 505.128 432.609 505.128 432.142 505.128 431.766 505.174 431.299 505.265 430.74 505.356 430.182 505.473 429.575 505.615 428.92 505.758 428.265 505.914 427.579 506.085 426.861 506.256 426.143 506.424 425.431 506.589 424.725 506.755 424.018 506.903 423.338 507.034 422.683 507.165 422.027 507.259 421.432 507.316 420.897 507.339 420.806 507.35 420.717 507.35 420.632 507.35 420.546 507.35 420.469 507.35 420.401 507.327 419.957 507.17 419.632 506.88 419.427 506.589 419.222 506.074 419.108 505.333 419.085L505.538 417.923ZM509.503 410.848 512.921 410.848 512.084 414.522 508.7 414.522Z" fill-rule="evenodd"/><text fill="#000000" fill-opacity="0" font-family="Arial,Arial_MSFontService,sans-serif" font-size="24.4727" x="505.128" y="432.261">𝑖</text><path d="M0 0 210.395 378.584" stroke="#ED7D31" stroke-width="8" stroke-linejoin="round" stroke-miterlimit="10" fill="none" fill-rule="evenodd" transform="matrix(-1 0 0 1 850.395 215)"/><text font-family="Cambria Math,Cambria Math_MSFontService,sans-serif" font-weight="400" font-size="24" transform="translate(788.738 449)"> </text><path d="M758 531.846 758 440.923 871.222 440.923 871.222 350" stroke="#7030A0" stroke-width="8" stroke-miterlimit="8" fill="none" fill-rule="evenodd"/></g></svg>